# xmcd
#
# Track frame offsets:
#	150
#	21061
#	33070
#	54265
#	65202
#	83325
#	100443
#	113431
#	134094
#	150309
#	167539
#	188309
#	201388
#	220781
#
# Disc length: 3121 seconds
#
# Revision: 0
# Processed by: cddbd v1.5.2PL0 Copyright (c) Steve Scherf et al.
# Submitted via: EZCDAudioConverter 4.0.5.1
#
DISCID=aa0c2f0e
DTITLE=Bruno and Marrone - Paixão Demais
DYEAR=2003
DGENRE=Sertanejo
TTITLE0=Depois Da Ressaca
TTITLE1=O Rebolado Da Morena
TTITLE2=Passou Da Conta
TTITLE3=Sem Vergonha
TTITLE4=Quem Manda e o Coração
TTITLE5=Paixão De Mais
TTITLE6=Coisinha Bela
TTITLE7=Medo
TTITLE8=Dividindo Solidão
TTITLE9=Rabo De Saia
TTITLE10=Por Um Minuto
TTITLE11=Tá Na Hora
TTITLE12=Meu Jeito De Sentir
TTITLE13=Vivendo de Passado
EXTD=
EXTT0=
EXTT1=
EXTT2=
EXTT3=
EXTT4=
EXTT5=
EXTT6=
EXTT7=
EXTT8=
EXTT9=
EXTT10=
EXTT11=
EXTT12=
EXTT13=
PLAYORDER=
